<svg xmlns="http://www.w3.org/2000/svg" xmlns:xlink="http://www.w3.org/1999/xlink" width="170" zoomAndPan="magnify" viewBox="0 0 127.5 30.000001" height="40" preserveAspectRatio="xMidYMid meet" version="1.0"><defs><g/><clipPath id="d34726f33e"><path d="M 4.730469 2.914062 L 28.046875 2.914062 L 28.046875 26.230469 L 4.730469 26.230469 Z M 4.730469 2.914062 " clip-rule="nonzero"/></clipPath></defs><g clip-path="url(#d34726f33e)"><path fill="#8bdb11" d="M 26.640625 11.277344 L 27.675781 2.917969 L 20.332031 6.828125 L 12.4375 6.828125 L 5.097656 2.917969 L 6.128906 11.277344 L 4.730469 17.988281 L 7.90625 23.847656 L 16.386719 26.226562 L 24.863281 23.847656 L 28.042969 17.988281 Z M 23.992188 22.78125 L 16.386719 24.914062 L 8.78125 22.78125 L 6.074219 17.796875 L 7.425781 11.328125 L 6.667969 5.1875 L 12.117188 8.085938 L 20.65625 8.085938 L 26.105469 5.1875 L 25.347656 11.328125 L 26.695312 17.796875 Z M 23.992188 22.78125 " fill-opacity="1" fill-rule="nonzero"/></g><path fill="#8bdb11" d="M 11.902344 20.570312 L 20.871094 20.570312 L 16.386719 16.742188 Z M 11.902344 20.570312 " fill-opacity="1" fill-rule="nonzero"/><g fill="#8bdb11" fill-opacity="1"><g transform="translate(35.222466, 17.697331)"><g><path d="M 7.878906 0 L 10.746094 0 L 8.117188 -4.472656 C 9.441406 -5.117188 10.289062 -6.371094 10.289062 -7.929688 C 10.289062 -10.21875 8.507812 -11.863281 6.136719 -11.863281 L 1.355469 -11.863281 L 1.355469 0 L 3.914062 0 L 3.914062 -4.035156 L 5.558594 -4.035156 Z M 3.914062 -9.492188 L 5.964844 -9.492188 C 7.050781 -9.492188 7.675781 -8.828125 7.675781 -7.949219 C 7.675781 -7.050781 7.050781 -6.40625 5.964844 -6.40625 L 3.914062 -6.40625 Z M 3.914062 -9.492188 "/></g></g></g><g fill="#8bdb11" fill-opacity="1"><g transform="translate(47.167821, 17.697331)"><g><path d="M 3.914062 -2.371094 L 3.914062 -4.8125 L 8.035156 -4.8125 L 8.035156 -7.136719 L 3.914062 -7.136719 L 3.914062 -9.492188 L 8.472656 -9.492188 L 8.472656 -11.863281 L 1.355469 -11.863281 L 1.355469 0 L 8.660156 0 L 8.660156 -2.371094 Z M 3.914062 -2.371094 "/></g></g></g><g fill="#8bdb11" fill-opacity="1"><g transform="translate(57.384947, 17.697331)"><g><path d="M 5.289062 0.238281 C 7.746094 0.238281 9.777344 -1 9.777344 -3.558594 C 9.777344 -6.21875 7.507812 -6.777344 5.710938 -7.238281 C 4.441406 -7.542969 3.421875 -7.796875 3.421875 -8.625 C 3.421875 -9.40625 4.253906 -9.761719 5.085938 -9.761719 C 6.050781 -9.761719 6.898438 -9.289062 6.898438 -8.253906 L 9.421875 -8.253906 C 9.421875 -10.625 7.878906 -12.082031 5.152344 -12.082031 C 2.523438 -12.082031 0.847656 -10.796875 0.847656 -8.523438 C 0.847656 -5.964844 3.015625 -5.441406 4.8125 -5 C 6.101562 -4.710938 7.1875 -4.457031 7.1875 -3.523438 C 7.1875 -2.644531 6.238281 -2.136719 5.269531 -2.136719 C 4.21875 -2.136719 3.269531 -2.695312 3.269531 -3.832031 L 0.679688 -3.832031 C 0.679688 -1.289062 2.558594 0.238281 5.289062 0.238281 Z M 5.289062 0.238281 "/></g></g></g><g fill="#8bdb11" fill-opacity="1"><g transform="translate(68.618678, 17.697331)"><g><path d="M 3.914062 -2.371094 L 3.914062 -4.8125 L 8.035156 -4.8125 L 8.035156 -7.136719 L 3.914062 -7.136719 L 3.914062 -9.492188 L 8.472656 -9.492188 L 8.472656 -11.863281 L 1.355469 -11.863281 L 1.355469 0 L 8.660156 0 L 8.660156 -2.371094 Z M 3.914062 -2.371094 "/></g></g></g><g fill="#8bdb11" fill-opacity="1"><g transform="translate(78.835804, 17.697331)"><g><path d="M 8.863281 -11.863281 L 8.863281 -4.625 L 3.660156 -11.863281 L 1.355469 -11.863281 L 1.355469 0 L 3.863281 0 L 3.863281 -7.40625 L 9.238281 0 L 11.390625 0 L 11.390625 -11.863281 Z M 8.863281 -11.863281 "/></g></g></g><g fill="#8bdb11" fill-opacity="1"><g transform="translate(92.323009, 17.697331)"><g><path d="M 5.828125 -11.863281 L 1.355469 -11.863281 L 1.355469 0 L 5.828125 0 C 9.320312 0 11.847656 -2.492188 11.847656 -5.933594 C 11.847656 -9.371094 9.320312 -11.863281 5.828125 -11.863281 Z M 5.777344 -2.371094 L 3.914062 -2.371094 L 3.914062 -9.472656 L 5.777344 -9.472656 C 7.8125 -9.472656 9.21875 -8.035156 9.21875 -5.933594 C 9.21875 -3.863281 7.8125 -2.371094 5.777344 -2.371094 Z M 5.777344 -2.371094 "/></g></g></g><g fill="#8bdb11" fill-opacity="1"><g transform="translate(105.623832, 17.697331)"><g><path d="M 3.914062 -2.371094 L 3.914062 -4.8125 L 8.035156 -4.8125 L 8.035156 -7.136719 L 3.914062 -7.136719 L 3.914062 -9.492188 L 8.472656 -9.492188 L 8.472656 -11.863281 L 1.355469 -11.863281 L 1.355469 0 L 8.660156 0 L 8.660156 -2.371094 Z M 3.914062 -2.371094 "/></g></g></g><g fill="#c1c6cc" fill-opacity="1"><g transform="translate(39.874588, 24.426104)"><g><path d="M 3.453125 -2.785156 L 2.917969 -0.933594 L 2.167969 -2.753906 L 1.964844 -2.753906 L 1.234375 -0.929688 L 0.683594 -2.785156 L 0.046875 -2.785156 L 0.921875 0 L 1.460938 0 L 2.066406 -1.558594 L 2.6875 0 L 3.222656 0 L 4.082031 -2.785156 Z M 3.453125 -2.785156 "/></g></g></g><g fill="#c1c6cc" fill-opacity="1"><g transform="translate(47.200148, 24.426104)"><g><path d="M 0.917969 -0.558594 L 0.917969 -1.128906 L 1.886719 -1.128906 L 1.886719 -1.675781 L 0.917969 -1.675781 L 0.917969 -2.230469 L 1.988281 -2.230469 L 1.988281 -2.785156 L 0.320312 -2.785156 L 0.320312 0 L 2.035156 0 L 2.035156 -0.558594 Z M 0.917969 -0.558594 "/></g></g></g><g fill="#c1c6cc" fill-opacity="1"><g transform="translate(52.609093, 24.426104)"><g><path d="M 1.992188 -1.46875 C 2.1875 -1.605469 2.308594 -1.828125 2.308594 -2.066406 C 2.308594 -2.476562 1.949219 -2.78125 1.46875 -2.78125 L 0.320312 -2.78125 L 0.320312 0.00390625 L 1.5 0.00390625 C 1.984375 0.00390625 2.378906 -0.355469 2.378906 -0.800781 C 2.378906 -1.097656 2.238281 -1.335938 1.992188 -1.46875 Z M 1.722656 -1.972656 C 1.722656 -1.796875 1.601562 -1.675781 1.414062 -1.675781 L 0.90625 -1.675781 L 0.90625 -2.269531 L 1.414062 -2.269531 C 1.601562 -2.269531 1.722656 -2.148438 1.722656 -1.972656 Z M 1.445312 -0.550781 L 0.90625 -0.550781 L 0.90625 -1.175781 L 1.445312 -1.175781 C 1.644531 -1.175781 1.773438 -1.042969 1.773438 -0.863281 C 1.773438 -0.679688 1.644531 -0.550781 1.445312 -0.550781 Z M 1.445312 -0.550781 "/></g></g></g><g fill="#c1c6cc" fill-opacity="1"><g transform="translate(58.348079, 24.426104)"><g/></g></g><g fill="#c1c6cc" fill-opacity="1"><g transform="translate(62.484585, 24.426104)"><g><path d="M 1.980469 -2.226562 L 1.980469 -2.785156 L 0.320312 -2.785156 L 0.320312 0 L 0.917969 0 L 0.917969 -1.066406 L 1.878906 -1.066406 L 1.878906 -1.613281 L 0.917969 -1.613281 L 0.917969 -2.226562 Z M 1.980469 -2.226562 "/></g></g></g><g fill="#c1c6cc" fill-opacity="1"><g transform="translate(67.798099, 24.426104)"><g><path d="M 1.441406 0.0625 C 2.097656 0.0625 2.589844 -0.394531 2.589844 -1.046875 L 2.589844 -2.785156 L 1.984375 -2.785156 L 1.984375 -1.074219 C 1.984375 -0.726562 1.757812 -0.503906 1.441406 -0.503906 C 1.117188 -0.503906 0.890625 -0.726562 0.890625 -1.074219 L 0.890625 -2.785156 L 0.285156 -2.785156 L 0.285156 -1.046875 C 0.285156 -0.394531 0.78125 0.0625 1.441406 0.0625 Z M 1.441406 0.0625 "/></g></g></g><g fill="#c1c6cc" fill-opacity="1"><g transform="translate(73.863147, 24.426104)"><g><path d="M 0.917969 -0.558594 L 0.917969 -2.785156 L 0.320312 -2.785156 L 0.320312 0 L 1.988281 0 L 1.988281 -0.558594 Z M 0.917969 -0.558594 "/></g></g></g><g fill="#c1c6cc" fill-opacity="1"><g transform="translate(79.124967, 24.426104)"><g><path d="M 0.917969 -0.558594 L 0.917969 -2.785156 L 0.320312 -2.785156 L 0.320312 0 L 1.988281 0 L 1.988281 -0.558594 Z M 0.917969 -0.558594 "/></g></g></g><g fill="#c1c6cc" fill-opacity="1"><g transform="translate(84.386784, 24.426104)"><g><path d="M 1.242188 0.0546875 C 1.820312 0.0546875 2.296875 -0.234375 2.296875 -0.835938 C 2.296875 -1.460938 1.761719 -1.59375 1.339844 -1.699219 C 1.042969 -1.769531 0.804688 -1.832031 0.804688 -2.027344 C 0.804688 -2.207031 1 -2.292969 1.195312 -2.292969 C 1.421875 -2.292969 1.621094 -2.179688 1.621094 -1.9375 L 2.210938 -1.9375 C 2.210938 -2.496094 1.851562 -2.835938 1.210938 -2.835938 C 0.59375 -2.835938 0.199219 -2.535156 0.199219 -2 C 0.199219 -1.402344 0.707031 -1.277344 1.128906 -1.175781 C 1.433594 -1.105469 1.6875 -1.046875 1.6875 -0.828125 C 1.6875 -0.621094 1.464844 -0.5 1.238281 -0.5 C 0.992188 -0.5 0.769531 -0.632812 0.769531 -0.898438 L 0.160156 -0.898438 C 0.160156 -0.300781 0.601562 0.0546875 1.242188 0.0546875 Z M 1.242188 0.0546875 "/></g></g></g><g fill="#c1c6cc" fill-opacity="1"><g transform="translate(90.034313, 24.426104)"><g><path d="M 2.238281 -2.785156 L 0.0820312 -2.785156 L 0.0820312 -2.226562 L 0.859375 -2.226562 L 0.859375 0 L 1.460938 0 L 1.460938 -2.226562 L 2.238281 -2.226562 Z M 2.238281 -2.785156 "/></g></g></g><g fill="#c1c6cc" fill-opacity="1"><g transform="translate(95.542671, 24.426104)"><g><path d="M 2.164062 0 L 2.820312 0 L 1.695312 -2.785156 L 1.125 -2.785156 L 0.03125 0 L 0.671875 0 L 0.863281 -0.523438 L 1.96875 -0.523438 Z M 1.417969 -2.050781 L 1.78125 -1.050781 L 1.050781 -1.050781 Z M 1.417969 -2.050781 "/></g></g></g><g fill="#c1c6cc" fill-opacity="1"><g transform="translate(101.58386, 24.426104)"><g><path d="M 1.597656 0.0625 C 2.285156 0.0625 2.824219 -0.398438 2.953125 -1.085938 L 2.34375 -1.085938 C 2.246094 -0.734375 1.960938 -0.511719 1.597656 -0.511719 C 1.121094 -0.511719 0.769531 -0.886719 0.769531 -1.390625 C 0.769531 -1.890625 1.121094 -2.269531 1.597656 -2.269531 C 1.945312 -2.269531 2.226562 -2.0625 2.339844 -1.734375 L 2.941406 -1.734375 C 2.8125 -2.394531 2.273438 -2.84375 1.597656 -2.84375 C 0.777344 -2.84375 0.15625 -2.214844 0.15625 -1.390625 C 0.15625 -0.566406 0.777344 0.0625 1.597656 0.0625 Z M 1.597656 0.0625 "/></g></g></g><g fill="#c1c6cc" fill-opacity="1"><g transform="translate(107.835795, 24.426104)"><g><path d="M 2.636719 0 L 1.585938 -1.449219 L 2.535156 -2.785156 L 1.835938 -2.785156 L 0.917969 -1.496094 L 0.917969 -2.785156 L 0.320312 -2.785156 L 0.320312 0 L 0.917969 0 L 0.917969 -1.355469 L 1.902344 0 Z M 2.636719 0 "/></g></g></g></svg>